<mxfile host="app.diagrams.net" modified="2021-04-26T20:14:02.121Z" agent="5.0 (Windows NT 10.0; Win64; x64) AppleWebKit/537.36 (KHTML, like Gecko) Chrome/89.0.4389.128 Safari/537.36" etag="6t-Jv-hcF1UzGd2hx_Zx" version="14.6.5" type="github">
  <diagram id="q_-OfJpVuc46Vi0m4wlO" name="Page-1">
    <mxGraphModel dx="1422" dy="762" grid="1" gridSize="10" guides="1" tooltips="1" connect="1" arrows="1" fold="1" page="1" pageScale="1" pageWidth="850" pageHeight="1100" math="0" shadow="0">
      <root>
        <mxCell id="0" />
        <mxCell id="1" parent="0" />
        <mxCell id="bHqAYAbNMkdiLEmuRsNj-1" value="&lt;font style=&quot;font-size: 24px&quot;&gt;Trophy Fisherman&lt;/font&gt;" style="text;html=1;strokeColor=none;fillColor=none;align=center;verticalAlign=middle;whiteSpace=wrap;rounded=0;" vertex="1" parent="1">
          <mxGeometry x="318" y="50" width="215" height="20" as="geometry" />
        </mxCell>
        <mxCell id="bHqAYAbNMkdiLEmuRsNj-2" value="What did you catch?" style="text;html=1;strokeColor=none;fillColor=none;align=center;verticalAlign=middle;whiteSpace=wrap;rounded=0;" vertex="1" parent="1">
          <mxGeometry x="70" y="130" width="180" height="20" as="geometry" />
        </mxCell>
        <mxCell id="bHqAYAbNMkdiLEmuRsNj-3" value="How long is your catch?" style="text;html=1;strokeColor=none;fillColor=none;align=center;verticalAlign=middle;whiteSpace=wrap;rounded=0;" vertex="1" parent="1">
          <mxGeometry x="300" y="130" width="180" height="20" as="geometry" />
        </mxCell>
        <mxCell id="bHqAYAbNMkdiLEmuRsNj-4" value="" style="rounded=0;whiteSpace=wrap;html=1;" vertex="1" parent="1">
          <mxGeometry x="85" y="150" width="150" height="20" as="geometry" />
        </mxCell>
        <mxCell id="bHqAYAbNMkdiLEmuRsNj-5" value="" style="rounded=0;whiteSpace=wrap;html=1;" vertex="1" parent="1">
          <mxGeometry x="327" y="150" width="150" height="20" as="geometry" />
        </mxCell>
        <mxCell id="bHqAYAbNMkdiLEmuRsNj-7" value="Upload a photo here" style="text;html=1;strokeColor=none;fillColor=none;align=center;verticalAlign=middle;whiteSpace=wrap;rounded=0;" vertex="1" parent="1">
          <mxGeometry x="560" y="130" width="190" height="20" as="geometry" />
        </mxCell>
        <mxCell id="bHqAYAbNMkdiLEmuRsNj-8" value="" style="rounded=0;whiteSpace=wrap;html=1;" vertex="1" parent="1">
          <mxGeometry x="590" y="150" width="120" height="20" as="geometry" />
        </mxCell>
      </root>
    </mxGraphModel>
  </diagram>
</mxfile>
